<svg id="barre_recherche2" xmlns="http://www.w3.org/2000/svg" xmlns:xlink="http://www.w3.org/1999/xlink" width="1004.5" height="131.5" viewBox="0 0 1004.5 131.5">
  <defs>
    <filter id="Tracé_68" x="0" y="0" width="1004.5" height="131.5" filterUnits="userSpaceOnUse">
      <feOffset dx="3" dy="3" input="SourceAlpha"/>
      <feGaussianBlur stdDeviation="0.5" result="blur"/>
      <feFlood flood-color="#eee7e7" flood-opacity="0.388"/>
      <feComposite operator="in" in2="blur"/>
      <feComposite in="SourceGraphic"/>
    </filter>
    <filter id="Tracé_68-2" x="0" y="0" width="1004.5" height="131.5" filterUnits="userSpaceOnUse">
      <feOffset dx="3" dy="3" input="SourceAlpha"/>
      <feGaussianBlur stdDeviation="0.5" result="blur-2"/>
      <feFlood flood-opacity="0.412" result="color"/>
      <feComposite operator="out" in="SourceGraphic" in2="blur-2"/>
      <feComposite operator="in" in="color"/>
      <feComposite operator="in" in2="SourceGraphic"/>
    </filter>
    <linearGradient id="linear-gradient" x1="0.155" y1="0.042" x2="0.865" y2="0.838" gradientUnits="objectBoundingBox">
      <stop offset="0" stop-color="#20413e"/>
      <stop offset="1" stop-color="#060d0c"/>
    </linearGradient>
    <filter id="Tracé_63" x="745.5" y="2.5" width="232" height="119" filterUnits="userSpaceOnUse">
      <feOffset dx="-3" dy="-2" input="SourceAlpha"/>
      <feGaussianBlur stdDeviation="3.5" result="blur-3"/>
      <feFlood flood-color="#171717" flood-opacity="0.671"/>
      <feComposite operator="in" in2="blur-3"/>
      <feComposite in="SourceGraphic"/>
    </filter>
    <filter id="Tracé_63-2" x="745.5" y="2.5" width="232" height="119" filterUnits="userSpaceOnUse">
      <feOffset dx="2" dy="2" input="SourceAlpha"/>
      <feGaussianBlur stdDeviation="3" result="blur-4"/>
      <feFlood flood-color="#ffefef" flood-opacity="0.161" result="color-2"/>
      <feComposite operator="out" in="SourceGraphic" in2="blur-4"/>
      <feComposite operator="in" in="color-2"/>
      <feComposite operator="in" in2="SourceGraphic"/>
    </filter>
  </defs>
  <g data-type="innerShadowGroup">
    <g transform="matrix(1, 0, 0, 1, 0, 0)" filter="url(#Tracé_68)">
      <path id="Tracé_68-3" data-name="Tracé 68" d="M57,0H943a57,57,0,0,1,57,57V70a57,57,0,0,1-57,57H57A57,57,0,0,1,0,70V57A57,57,0,0,1,57,0Z" fill="#0e1513"/>
    </g>
    <g transform="matrix(1, 0, 0, 1, 0, 0)" filter="url(#Tracé_68-2)">
      <path id="Tracé_68-4" data-name="Tracé 68" d="M57,0H943a57,57,0,0,1,57,57V70a57,57,0,0,1-57,57H57A57,57,0,0,1,0,70V57A57,57,0,0,1,57,0Z" fill="#fff"/>
    </g>
  </g>
  <g id="Groupe_159" data-name="Groupe 159" transform="translate(798 -1406.5)">
    <g id="Ellipse_22" data-name="Ellipse 22" transform="translate(-740 1450)" fill="none" stroke="#b8b391" stroke-width="2">
      <circle cx="17.5" cy="17.5" r="17.5" stroke="none"/>
      <circle cx="17.5" cy="17.5" r="16.5" fill="none"/>
    </g>
    <line id="Ligne_3" data-name="Ligne 3" x2="21" y2="20" transform="translate(-712.5 1480.5)" fill="none" stroke="#b8b391" stroke-width="3"/>
  </g>
  <g data-type="innerShadowGroup">
    <g transform="matrix(1, 0, 0, 1, 0, 0)" filter="url(#Tracé_63)">
      <path id="Tracé_63-3" data-name="Tracé 63" d="M49,0H162a49,49,0,0,1,0,98H49A49,49,0,0,1,49,0Z" transform="translate(759 15)" fill="url(#linear-gradient)"/>
    </g>
    <g transform="matrix(1, 0, 0, 1, 0, 0)" filter="url(#Tracé_63-2)">
      <path id="Tracé_63-4" data-name="Tracé 63" d="M49,0H162a49,49,0,0,1,0,98H49A49,49,0,0,1,49,0Z" transform="translate(759 15)" fill="#fff"/>
    </g>
  </g>
  <text id="GENRE" transform="translate(796 83)" fill="#c9c5c5" font-size="45" font-family="SegoeUI, Segoe UI"><tspan x="0" y="0">GENRE</tspan></text>
  <line id="Ligne_5" data-name="Ligne 5" x2="599" transform="translate(125.5 88.5)" fill="none" stroke="#adab8a" stroke-width="1"/>
</svg>
