<svg xmlns="http://www.w3.org/2000/svg" xmlns:xlink="http://www.w3.org/1999/xlink" width="108" height="44.492" viewBox="0 0 108 44.492">
  <defs>
    <filter id="Rectangle_2" x="0" y="3.246" width="105" height="38" filterUnits="userSpaceOnUse">
      <feOffset dx="3" dy="3" input="SourceAlpha"/>
      <feGaussianBlur result="blur"/>
      <feFlood flood-color="#030303" flood-opacity="0.722" result="color"/>
      <feComposite operator="out" in="SourceGraphic" in2="blur"/>
      <feComposite operator="in" in="color"/>
      <feComposite operator="in" in2="SourceGraphic"/>
    </filter>
    <filter id="Tracé_51" x="50.942" y="0" width="57.058" height="44.492" filterUnits="userSpaceOnUse">
      <feOffset input="SourceAlpha"/>
      <feGaussianBlur stdDeviation="1" result="blur-2"/>
      <feFlood flood-color="#fff" flood-opacity="0.62"/>
      <feComposite operator="in" in2="blur-2"/>
      <feComposite in="SourceGraphic"/>
    </filter>
    <linearGradient id="linear-gradient" x1="0.156" x2="0.893" y2="0.955" gradientUnits="objectBoundingBox">
      <stop offset="0" stop-color="#daaa2c"/>
      <stop offset="0.699" stop-color="#5f4b15"/>
      <stop offset="0.837" stop-color="#514012"/>
      <stop offset="1" stop-color="#473810"/>
    </linearGradient>
    <filter id="Tracé_53" x="56.008" y="4.881" width="46.287" height="34.158" filterUnits="userSpaceOnUse">
      <feOffset input="SourceAlpha"/>
      <feGaussianBlur stdDeviation="1" result="blur-3"/>
      <feFlood flood-color="#fff" flood-opacity="0.62"/>
      <feComposite operator="in" in2="blur-3"/>
      <feComposite in="SourceGraphic"/>
    </filter>
  </defs>
  <g id="btn-serie-mobile" transform="translate(0 3)">
    <g id="btn-serie" transform="translate(-11 -3.754)">
      <g data-type="innerShadowGroup">
        <rect id="Rectangle_2-2" data-name="Rectangle 2" width="105" height="38" rx="16" transform="translate(11 4)" fill="#0e1513"/>
        <g transform="matrix(1, 0, 0, 1, 11, 0.75)" filter="url(#Rectangle_2)">
          <rect id="Rectangle_2-3" data-name="Rectangle 2" width="105" height="38" rx="16" transform="translate(0 3.25)" fill="#fff"/>
        </g>
      </g>
      <g transform="matrix(1, 0, 0, 1, 11, 0.75)" filter="url(#Tracé_51)">
        <path id="Tracé_51-2" data-name="Tracé 51" d="M14.3,0H36.761c7.9,0,14.3,6.032,14.3,13.472V25.02c0,7.441-6.4,13.472-14.3,13.472H14.3C6.4,38.492,0,32.461,0,25.02V13.472C0,6.032,6.4,0,14.3,0Z" transform="translate(53.94 3)" fill="#6a5417"/>
      </g>
      <text id="SERIE" transform="translate(23.5 29.5)" fill="#fafafa" font-size="14" font-family="DidactGothic-Regular, Didact Gothic"><tspan x="0" y="0">SERIE</tspan></text>
    </g>
    <g transform="matrix(1, 0, 0, 1, 0, -3)" filter="url(#Tracé_53)">
      <path id="Tracé_53-2" data-name="Tracé 53" d="M11.28,0H29.007c6.23,0,11.28,4.412,11.28,9.855V18.3c0,5.443-5.05,9.855-11.28,9.855H11.28C5.05,28.158,0,23.746,0,18.3V9.855C0,4.412,5.05,0,11.28,0Z" transform="translate(59.01 7.88)" fill="url(#linear-gradient)"/>
    </g>
  </g>
</svg>
